<?xml version="1.0"?>
<svg
	version="1.1"
	xmlns="http://www.w3.org/2000/svg"
	xmlns:xlink="http://www.w3.org/1999/xlink"
	viewBox="0 0 297 297">
	<path d="M148.5,0C66.617,0,0,66.617,0,148.5S66.617,297,148.5,297S297,230.383,297,148.5S230.383,0,148.5,0z M148.5,277 C77.645,277,20,219.355,20,148.5S77.645,20,148.5,20S277,77.645,277,148.5S219.355,277,148.5,277z"/>
	<path d="M175.813,96.563c0-15.061-12.252-27.313-27.313-27.313s-27.313,12.252-27.313,27.313s12.252,27.313,27.313,27.313 S175.813,111.623,175.813,96.563z M148.5,103.875c-4.032,0-7.313-3.28-7.313-7.313s3.28-7.313,7.313-7.313s7.313,3.28,7.313,7.313 S152.532,103.875,148.5,103.875z"/>
	<path d="M217.75,69.25c-15.061,0-27.313,12.252-27.313,27.313s12.252,27.313,27.313,27.313s27.313-12.252,27.313-27.313 S232.811,69.25,217.75,69.25z M217.75,103.875c-4.032,0-7.313-3.28-7.313-7.313s3.28-7.313,7.313-7.313s7.313,3.28,7.313,7.313 S221.782,103.875,217.75,103.875z"/>
	<path d="M183.125,121.188c-15.061,0-27.313,12.252-27.313,27.313s12.252,27.313,27.313,27.313s27.313-12.252,27.313-27.313 S198.186,121.188,183.125,121.188z M183.125,155.813c-4.032,0-7.313-3.28-7.313-7.313s3.28-7.313,7.313-7.313 s7.313,3.28,7.313,7.313S187.157,155.813,183.125,155.813z"/>
</svg>
