<?xml version="1.0"?>
<svg
	version="1.1"
	xmlns="http://www.w3.org/2000/svg"
	xmlns:xlink="http://www.w3.org/1999/xlink"
	viewBox="0 0 512 512">
	<path
		d="M411.134,121.667l-39.45-72.83c-1.783-3.291-5.225-5.341-8.968-5.341h-19.135V10.199C343.581,4.566,339.015,0,333.382,0 h-27.311c-5.633,0-10.199,4.566-10.199,10.199v33.296h-6.913V10.199C288.959,4.566,284.392,0,278.759,0h-27.311 c-5.633,0-10.199,4.566-10.199,10.199v33.296h-90.953c-3.704,0-7.117,2.008-8.916,5.246l-40.46,72.83 c-1.755,3.159-1.707,7.011,0.125,10.126c1.833,3.115,5.177,5.027,8.791,5.027h16.1v365.075c0,5.633,4.566,10.199,10.199,10.199 h239.732c5.633,0,10.199-4.566,10.199-10.199V136.724h16.101c3.594,0,6.923-1.892,8.762-4.98 C412.768,128.656,412.845,124.828,411.134,121.667z M316.27,20.398h6.913v23.097h-6.913V20.398z M261.647,20.398h6.913v23.097 h-6.913V20.398z M273.617,491.602h-35.235v-31.189h35.235V491.602z M365.668,491.602h-0.001h-71.65v-41.388 c0-5.633-4.566-10.199-10.199-10.199h-55.634c-5.633,0-10.199,4.566-10.199,10.199v41.388h-71.65V136.724h219.334V491.602z M127.169,116.326l29.128-52.432h200.345l28.4,52.432H127.169z"/>
	<path d="M240.225,152.741h-71.722c-5.633,0-10.199,4.566-10.199,10.199v37.426c0,5.633,4.566,10.199,10.199,10.199h71.722 c5.633,0,10.199-4.566,10.199-10.199V162.94C250.424,157.307,245.858,152.741,240.225,152.741z M230.025,190.166h-51.323v-17.028
	h51.323V190.166z"/>
	<path d="M344.509,152.741h-71.722c-5.633,0-10.199,4.566-10.199,10.199v37.426c0,5.633,4.566,10.199,10.199,10.199h71.722 c5.633,0,10.199-4.566,10.199-10.199V162.94C354.708,157.307,350.142,152.741,344.509,152.741z M334.309,190.166h-51.323v-17.028
	h51.323V190.166z"/>
	<path d="M240.225,225.571h-71.722c-5.633,0-10.199,4.566-10.199,10.199v37.426c0,5.633,4.566,10.199,10.199,10.199h71.722 c5.633,0,10.199-4.566,10.199-10.199V235.77C250.424,230.137,245.858,225.571,240.225,225.571z M230.025,262.997h-51.323v-17.028
	h51.323V262.997z"/>
	<path d="M344.509,225.571h-71.722c-5.633,0-10.199,4.566-10.199,10.199v37.426c0,5.633,4.566,10.199,10.199,10.199h71.722 c5.633,0,10.199-4.566,10.199-10.199V235.77C354.708,230.137,350.142,225.571,344.509,225.571z M334.309,262.997h-51.323v-17.028
	h51.323V262.997z"/>
	<path d="M240.225,296.377h-71.722c-5.633,0-10.199,4.566-10.199,10.199v37.427c0,5.633,4.566,10.199,10.199,10.199h71.722 c5.633,0,10.199-4.566,10.199-10.199v-37.427C250.424,300.943,245.858,296.377,240.225,296.377z M230.025,333.804h-51.323v-17.029
	h51.323V333.804z"/>
	<path d="M344.509,296.377h-71.722c-5.633,0-10.199,4.566-10.199,10.199v37.427c0,5.633,4.566,10.199,10.199,10.199h71.722 c5.633,0,10.199-4.566,10.199-10.199v-37.427C354.708,300.943,350.142,296.377,344.509,296.377z M334.309,333.804h-51.323v-17.029
	h51.323V333.804z"/>
	<path d="M240.225,369.207h-71.722c-5.633,0-10.199,4.566-10.199,10.199v37.426c0,5.633,4.566,10.199,10.199,10.199h71.722 c5.633,0,10.199-4.566,10.199-10.199v-37.426C250.424,373.773,245.858,369.207,240.225,369.207z M230.025,406.633h-51.323v-17.028
	h51.323V406.633z"/>
	<path d="M344.509,369.207h-71.722c-5.633,0-10.199,4.566-10.199,10.199v37.426c0,5.633,4.566,10.199,10.199,10.199h71.722 c5.633,0,10.199-4.566,10.199-10.199v-37.426C354.708,373.773,350.142,369.207,344.509,369.207z M334.309,406.633h-51.323v-17.028
	h51.323V406.633z"/>
	<path d="M312.139,85.979h-13.15c-5.633,0-10.199,4.566-10.199,10.199c0,5.633,4.566,10.199,10.199,10.199h13.15 c5.633,0,10.199-4.566,10.199-10.199C322.338,90.545,317.772,85.979,312.139,85.979z"/>
	<path d="M263.587,85.979h-96.096c-5.633,0-10.199,4.566-10.199,10.199c0,5.633,4.566,10.199,10.199,10.199h96.095 c5.633,0,10.199-4.566,10.199-10.199C273.785,90.545,269.219,85.979,263.587,85.979z"/>
</svg>
