<?xml version="1.0"?>
<svg
	version="1.1"
	xmlns="http://www.w3.org/2000/svg"
	xmlns:xlink="http://www.w3.org/1999/xlink"
	viewBox="0 0 512 512">
	<path d="m255.2,415h-133.9l33.3-35.3c13.8,1.1 48.2-1.2 63-4.5l37.6,39.8zm239.4-212.6c-8.2-7.8-21.2-7.4-29,0.8l-31.6,33.5h-102.6c-11.7-52.3-67.1-93.5-136.8-101.1v-38.6h121.6c11.3,0 20.5-9.2 20.5-20.5 0-11.3-9.2-20.5-20.5-20.5h-284.2c-11.3,0-20.5,9.2-20.5,20.5-0.1,11.3 9.1,20.5 20.5,20.5h121.6v160.3c0,11.3-9.2,20.5-20.5,20.5h-122.1c9.3,41.7 46.3,76.2 96.1,92.4l-42.2,44.8h-24.8c-11.3,0-20.5,9.2-20.5,20.5 0,11.3 9.2,20.5 20.5,20.5h296.3c11.3,0 20.5-9.2 20.5-20.5 0-11.3-9.2-20.5-20.5-20.5h-24.8l-51.6-54.7c37.2-18.4 63.7-48 71.4-82.5h111.4c5.7,0 11-2.3 14.9-6.4l37.7-40c7.8-8.2 7.4-21.2-0.8-29z"/>
	<path d="m11,236.8h101.6v-94.1c-52.6,15.4-92,50.9-101.6,94.1z"/>
</svg>
